<?xml version="1.0" encoding="UTF-8" standalone="no"?>
<!-- Created with Inkscape (http://www.inkscape.org/) -->

<svg
   xmlns:dc="http://purl.org/dc/elements/1.1/"
   xmlns:cc="http://creativecommons.org/ns#"
   xmlns:rdf="http://www.w3.org/1999/02/22-rdf-syntax-ns#"
   xmlns:svg="http://www.w3.org/2000/svg"
   xmlns="http://www.w3.org/2000/svg"
   xmlns:sodipodi="http://sodipodi.sourceforge.net/DTD/sodipodi-0.dtd"
   xmlns:inkscape="http://www.inkscape.org/namespaces/inkscape"
   version="1.1"
   id="svg29"
   xml:space="preserve"
   width="793.70074"
   height="1122.5197"
   viewBox="0 0 793.70074 1122.5197"
   sodipodi:docname="F - second version export_black.svg"
   inkscape:version="0.92.4 (unknown)"><metadata
     id="metadata35"><rdf:RDF><cc:Work
         rdf:about=""><dc:format>image/svg+xml</dc:format><dc:type
           rdf:resource="http://purl.org/dc/dcmitype/StillImage" /><dc:title></dc:title></cc:Work></rdf:RDF></metadata><defs
     id="defs33" /><sodipodi:namedview
     pagecolor="#ffffff"
     bordercolor="#666666"
     borderopacity="1"
     objecttolerance="10"
     gridtolerance="10"
     guidetolerance="10"
     inkscape:pageopacity="0"
     inkscape:pageshadow="2"
     inkscape:window-width="1920"
     inkscape:window-height="1012"
     id="namedview31"
     showgrid="false"
     inkscape:zoom="0.51717105"
     inkscape:cx="227.6607"
     inkscape:cy="715.94753"
     inkscape:window-x="0"
     inkscape:window-y="0"
     inkscape:window-maximized="1"
     inkscape:current-layer="g37" /><g
     id="g37"
     inkscape:groupmode="layer"
     inkscape:label="F - second version export"
     transform="matrix(1.3333333,0,0,1.3333333,0,3.3396326e-5)"><g
       id="g4580"><g
         transform="translate(0.00445577,-0.94391867)"
         style="fill:#000000"
         id="g39"><g
           style="fill:#000000"
           id="g41"><path
             inkscape:connector-curvature="0"
             id="path43"
             style="fill:#000000;fill-opacity:1;fill-rule:evenodd;stroke:#000000;stroke-width:0.283465;stroke-linecap:round;stroke-linejoin:miter;stroke-miterlimit:4;stroke-dasharray:none;stroke-opacity:1"
             d="m 120.824,41.535 c -5.211,-0.195 -7.156,6.746 -2.605,9.289 l 57.027,32.926 c 2.379,1.441 5.477,0.645 6.867,-1.766 1.391,-2.406 0.532,-5.484 -1.906,-6.824 L 123.18,42.234 c -0.715,-0.425 -1.524,-0.668 -2.356,-0.699 z m 325.672,1.25 c -5.211,-0.195 -7.156,6.746 -2.605,9.289 l 42.257,24.399 c 2.375,1.371 5.411,0.558 6.778,-1.813 1.371,-2.375 0.558,-5.41 -1.813,-6.777 L 448.848,43.48 c -0.711,-0.425 -1.524,-0.664 -2.352,-0.695 z m -18.664,15.906 c -5.211,-0.195 -7.16,6.747 -2.609,9.289 l 53.429,30.848 c 2.371,1.371 5.407,0.559 6.778,-1.816 1.371,-2.371 0.554,-5.407 -1.817,-6.778 L 430.184,59.387 c -0.711,-0.426 -1.52,-0.664 -2.352,-0.696 z m -321,1.45 c -5.211,-0.196 -7.156,6.746 -2.609,9.289 l 41.601,24.019 22.547,13.012 23.106,13.344 c 2.378,1.41 5.445,0.605 6.828,-1.789 1.383,-2.391 0.543,-5.45 -1.867,-6.805 L 173.332,97.871 150.785,84.855 109.184,60.836 c -0.715,-0.426 -1.524,-0.664 -2.352,-0.695 z m 308.023,17.742 c -5.21,-0.195 -7.16,6.746 -2.605,9.289 l 17.23,9.949 c 2.379,1.434 5.473,0.637 6.86,-1.769 1.39,-2.403 0.531,-5.481 -1.899,-6.825 l -17.23,-9.949 c -0.715,-0.426 -1.523,-0.664 -2.356,-0.695 z M 115.508,91.832 c -5.207,-0.195 -7.156,6.746 -2.606,9.289 l 10.071,5.813 c 2.379,1.441 5.476,0.644 6.863,-1.762 1.391,-2.41 0.531,-5.488 -1.902,-6.828 l -10.071,-5.817 c -0.715,-0.425 -1.523,-0.664 -2.355,-0.695 z m 289.379,6.977 c -5.215,-0.2 -7.164,6.75 -2.61,9.289 l 13.625,7.867 c 2.379,1.437 5.477,0.64 6.864,-1.766 1.39,-2.406 0.531,-5.488 -1.903,-6.828 l -13.625,-7.863 c -0.711,-0.43 -1.519,-0.668 -2.351,-0.699 z m -7.766,22.203 c -5.207,-0.2 -7.156,6.746 -2.605,9.285 l 14.269,8.238 c 2.379,1.426 5.457,0.625 6.844,-1.773 1.387,-2.399 0.539,-5.469 -1.883,-6.817 l -14.269,-8.238 c -0.715,-0.426 -1.524,-0.668 -2.356,-0.695 z m -213.512,10.14 c -5.207,-0.195 -7.156,6.746 -2.605,9.289 l 19.543,11.282 c 2.379,1.41 5.445,0.605 6.828,-1.785 1.379,-2.395 0.539,-5.454 -1.867,-6.809 l -19.543,-11.281 c -0.715,-0.426 -1.524,-0.664 -2.356,-0.696 z m 207.446,13.039 c -5.207,-0.195 -7.157,6.743 -2.606,9.286 l 16.438,9.492 c 2.371,1.371 5.406,0.558 6.777,-1.817 1.371,-2.371 0.559,-5.406 -1.816,-6.777 l -16.438,-9.488 c -0.715,-0.426 -1.523,-0.664 -2.355,-0.696 z m -203.352,16.008 c -5.207,-0.199 -7.156,6.746 -2.605,9.285 l 21.082,12.172 c 2.379,1.438 5.472,0.641 6.863,-1.765 1.387,-2.407 0.531,-5.485 -1.902,-6.825 l -21.082,-12.171 c -0.715,-0.426 -1.524,-0.668 -2.356,-0.696 z m 198.785,8.035 c -5.211,-0.195 -7.156,6.746 -2.605,9.289 l 19.539,11.282 c 2.371,1.371 5.406,0.558 6.773,-1.817 1.371,-2.371 0.559,-5.406 -1.812,-6.777 l -19.539,-11.277 c -0.715,-0.426 -1.524,-0.668 -2.356,-0.7 z m -197.66,19.293 c -5.211,-0.195 -7.156,6.746 -2.605,9.289 l 23.226,13.411 c 2.379,1.437 5.473,0.64 6.86,-1.766 1.39,-2.406 0.531,-5.484 -1.899,-6.824 l -23.226,-13.414 c -0.715,-0.426 -1.524,-0.664 -2.356,-0.696 z m 194.469,5.547 c -5.207,-0.195 -7.156,6.746 -2.606,9.289 l 23.008,13.285 c 2.375,1.372 5.41,0.559 6.781,-1.816 1.368,-2.371 0.555,-5.406 -1.816,-6.777 l -23.012,-13.282 c -0.714,-0.425 -1.523,-0.668 -2.355,-0.699 z m -195.336,20.637 c -5.211,-0.195 -7.156,6.746 -2.606,9.289 l 25.641,14.805 c 2.375,1.367 5.406,0.554 6.777,-1.817 1.372,-2.375 0.559,-5.406 -1.816,-6.777 l -25.645,-14.805 c -0.71,-0.426 -1.519,-0.664 -2.351,-0.695 z m 193.449,4.957 c -5.211,-0.195 -7.156,6.746 -2.605,9.289 l 26.98,15.578 c 2.375,1.426 5.461,0.625 6.848,-1.773 1.387,-2.403 0.535,-5.473 -1.887,-6.821 l -26.98,-15.578 c -0.715,-0.425 -1.524,-0.664 -2.356,-0.695 z m -195.754,20.391 c -5.211,-0.196 -7.16,6.746 -2.609,9.289 l 28.105,16.226 c 2.375,1.438 5.473,0.641 6.864,-1.765 1.386,-2.407 0.531,-5.485 -1.907,-6.829 l -28.101,-16.222 c -0.715,-0.426 -1.524,-0.668 -2.352,-0.699 z m 195.129,5.929 c -5.211,-0.199 -7.16,6.746 -2.609,9.289 l 31.629,18.262 c 2.379,1.426 5.465,0.629 6.851,-1.773 1.387,-2.403 0.535,-5.473 -1.89,-6.821 l -31.629,-18.257 c -0.711,-0.426 -1.52,-0.668 -2.352,-0.7 z m -198.676,18.707 c -5.211,-0.195 -7.156,6.746 -2.605,9.289 l 30.543,17.637 c 2.375,1.387 5.422,0.574 6.797,-1.805 1.375,-2.382 0.551,-5.425 -1.836,-6.789 l -30.547,-17.636 c -0.711,-0.426 -1.523,-0.664 -2.352,-0.696 z m 199.301,8.336 c -5.211,-0.195 -7.156,6.746 -2.605,9.289 l 37.16,21.453 c 2.375,1.438 5.473,0.641 6.859,-1.765 1.391,-2.406 0.531,-5.485 -1.902,-6.824 L 383.766,272.73 c -0.715,-0.425 -1.524,-0.668 -2.356,-0.699 z m -203.984,15.645 c -5.211,-0.196 -7.156,6.742 -2.606,9.285 l 33.114,19.121 c 2.378,1.438 5.476,0.641 6.867,-1.766 1.387,-2.406 0.527,-5.484 -1.906,-6.824 l -33.114,-19.121 c -0.715,-0.426 -1.523,-0.664 -2.355,-0.695 z m 205.949,12.176 c -5.211,-0.2 -7.16,6.742 -2.605,9.285 l 43.91,25.355 c 2.375,1.371 5.41,0.559 6.777,-1.816 1.371,-2.371 0.559,-5.406 -1.816,-6.778 l -43.914,-25.351 c -0.711,-0.426 -1.52,-0.664 -2.352,-0.695 z m -211.832,11.109 c -5.211,-0.195 -7.156,6.746 -2.605,9.289 l 35.937,20.746 c 2.375,1.422 5.457,0.625 6.844,-1.773 1.383,-2.403 0.535,-5.469 -1.883,-6.817 l -35.941,-20.75 c -0.711,-0.426 -1.52,-0.664 -2.352,-0.695 z m 215.145,17.484 c -5.211,-0.199 -7.161,6.746 -2.61,9.285 l 53.016,30.61 c 2.379,1.437 5.472,0.64 6.859,-1.766 1.391,-2.406 0.535,-5.484 -1.898,-6.824 l -53.016,-30.609 c -0.715,-0.426 -1.523,-0.664 -2.351,-0.696 z m -222.157,5.149 c -5.211,-0.196 -7.156,6.746 -2.605,9.289 l 39.023,22.531 c 2.375,1.41 5.446,0.606 6.824,-1.789 1.383,-2.391 0.543,-5.453 -1.867,-6.805 l -39.023,-22.527 c -0.711,-0.43 -1.524,-0.668 -2.352,-0.699 z m -8.176,21.961 c -5.21,-0.196 -7.16,6.746 -2.609,9.289 l 42.461,24.515 c 2.379,1.411 5.449,0.61 6.832,-1.785 1.379,-2.394 0.539,-5.457 -1.871,-6.808 l -42.461,-24.512 c -0.715,-0.426 -1.523,-0.668 -2.352,-0.699 z m 235.016,2.277 c -5.207,-0.195 -7.156,6.746 -2.605,9.289 l 81.957,47.317 c 2.379,1.437 5.472,0.64 6.863,-1.766 1.387,-2.406 0.531,-5.484 -1.902,-6.824 l -81.957,-47.321 c -0.715,-0.425 -1.524,-0.664 -2.356,-0.695 z m -244.437,18.969 c -5.211,-0.199 -7.161,6.746 -2.606,9.289 l 51.301,29.617 c 2.375,1.434 5.469,0.637 6.859,-1.769 1.391,-2.403 0.532,-5.481 -1.902,-6.825 l -51.297,-29.617 c -0.715,-0.426 -1.523,-0.664 -2.355,-0.695 z m 250.546,11.238 c -5.21,-0.195 -7.16,6.746 -2.609,9.289 l 70.008,40.418 c 2.379,1.422 5.461,0.625 6.844,-1.773 1.386,-2.403 0.539,-5.469 -1.879,-6.817 l -70.012,-40.418 c -0.715,-0.429 -1.523,-0.668 -2.352,-0.699 z m -265.937,6.559 c -5.207,-0.196 -7.156,6.742 -2.605,9.285 l 62.871,36.301 c 2.375,1.406 5.441,0.601 6.824,-1.789 1.379,-2.391 0.543,-5.45 -1.867,-6.805 l -62.868,-36.297 c -0.714,-0.426 -1.523,-0.664 -2.355,-0.695 z m 262.297,18.023 c -5.211,-0.199 -7.16,6.75 -2.606,9.289 l 76.891,44.395 c 2.375,1.406 5.445,0.605 6.824,-1.789 1.383,-2.395 0.543,-5.454 -1.867,-6.805 l -76.887,-44.395 c -0.715,-0.425 -1.523,-0.664 -2.355,-0.695 z m -267.145,5.859 c -5.211,-0.195 -7.156,6.747 -2.605,9.29 l 47.531,27.441 c 2.375,1.414 5.449,0.609 6.832,-1.785 1.379,-2.395 0.539,-5.457 -1.875,-6.809 l -47.527,-27.441 c -0.715,-0.426 -1.524,-0.664 -2.356,-0.696 z m -1.078,26.059 c -5.211,-0.195 -7.156,6.746 -2.605,9.289 l 40.398,23.324 c 2.375,1.434 5.469,0.637 6.86,-1.765 1.386,-2.407 0.531,-5.485 -1.903,-6.828 l -40.398,-23.325 c -0.711,-0.425 -1.52,-0.664 -2.352,-0.695 z m 299.465,12.805 c -5.207,-0.196 -7.156,6.746 -2.605,9.289 l 49.14,28.371 c 2.379,1.434 5.473,0.637 6.863,-1.77 1.387,-2.406 0.532,-5.48 -1.902,-6.824 l -49.14,-28.371 c -0.715,-0.426 -1.524,-0.664 -2.356,-0.695 z m -302.836,11.933 c -5.207,-0.195 -7.156,6.746 -2.605,9.289 l 37.117,21.426 c 2.375,1.438 5.469,0.641 6.859,-1.765 1.391,-2.407 0.531,-5.485 -1.902,-6.825 l -37.113,-21.429 c -0.715,-0.426 -1.524,-0.664 -2.356,-0.696 z m 312.762,20.477 c -5.211,-0.195 -7.156,6.746 -2.606,9.289 l 41.821,24.145 c 2.379,1.437 5.472,0.64 6.863,-1.766 1.387,-2.406 0.531,-5.484 -1.902,-6.824 l -41.825,-24.149 c -0.711,-0.426 -1.523,-0.664 -2.351,-0.695 z m -315.528,4.605 c -5.21,-0.195 -7.156,6.746 -2.609,9.289 l 34.473,19.903 c 2.379,1.433 5.472,0.64 6.859,-1.766 1.391,-2.406 0.535,-5.484 -1.898,-6.824 l -34.473,-19.902 c -0.711,-0.426 -1.523,-0.668 -2.352,-0.7 z m -2.144,25.446 c -5.211,-0.196 -7.156,6.746 -2.606,9.289 l 32.075,18.519 c 2.379,1.422 5.461,0.621 6.843,-1.777 1.387,-2.398 0.54,-5.465 -1.882,-6.813 l -32.075,-18.519 c -0.714,-0.426 -1.523,-0.668 -2.355,-0.699 z m 324.613,0.64 c -5.211,-0.199 -7.156,6.746 -2.605,9.285 l 36.617,21.145 c 2.375,1.371 5.41,0.559 6.777,-1.816 1.371,-2.371 0.559,-5.407 -1.816,-6.778 l -36.621,-21.14 c -0.711,-0.426 -1.524,-0.664 -2.352,-0.696 z m -326.082,25.196 c -5.211,-0.2 -7.16,6.746 -2.609,9.285 l 30.035,17.344 c 2.375,1.406 5.445,0.601 6.824,-1.79 1.379,-2.394 0.543,-5.453 -1.863,-6.804 l -30.035,-17.34 c -0.715,-0.426 -1.524,-0.664 -2.352,-0.695 z m 331.18,4.429 c -5.211,-0.199 -7.16,6.742 -2.609,9.285 l 32.398,18.707 c 2.375,1.422 5.457,0.622 6.844,-1.777 1.382,-2.398 0.535,-5.469 -1.883,-6.816 l -32.399,-18.703 c -0.71,-0.426 -1.523,-0.664 -2.351,-0.696 z m -331.895,21.84 c -5.211,-0.195 -7.16,6.746 -2.609,9.289 l 28.285,16.328 c 2.375,1.411 5.449,0.61 6.832,-1.785 1.379,-2.394 0.539,-5.457 -1.875,-6.808 l -28.281,-16.329 c -0.715,-0.425 -1.524,-0.664 -2.352,-0.695 z m 335.289,6.801 c -5.207,-0.195 -7.156,6.746 -2.605,9.289 l 28.969,16.727 c 2.371,1.371 5.406,0.558 6.777,-1.817 1.371,-2.371 0.555,-5.406 -1.816,-6.777 L 452.797,579.41 c -0.715,-0.426 -1.524,-0.668 -2.356,-0.699 z M 115.32,598.688 c -5.211,-0.196 -7.156,6.746 -2.609,9.289 l 26.75,15.441 c 2.375,1.437 5.473,0.641 6.859,-1.766 1.391,-2.406 0.532,-5.484 -1.902,-6.824 l -26.746,-15.441 c -0.711,-0.426 -1.524,-0.668 -2.352,-0.699 z m 337.055,7.82 c -5.215,-0.199 -7.164,6.75 -2.609,9.293 l 26.027,15.023 c 2.375,1.422 5.457,0.621 6.844,-1.777 1.383,-2.399 0.535,-5.465 -1.883,-6.813 l -26.027,-15.027 c -0.711,-0.426 -1.524,-0.668 -2.352,-0.699 z M 116.57,626.094 c -5.211,-0.196 -7.16,6.746 -2.609,9.289 l 25.332,14.625 c 2.379,1.433 5.473,0.64 6.863,-1.766 1.391,-2.41 0.532,-5.488 -1.902,-6.828 l -25.332,-14.625 c -0.715,-0.426 -1.524,-0.664 -2.352,-0.695 z m 336.289,7.379 c -5.207,-0.196 -7.156,6.746 -2.605,9.289 l 23.469,13.55 c 2.375,1.438 5.472,0.641 6.863,-1.765 1.387,-2.406 0.531,-5.488 -1.906,-6.828 l -23.465,-13.547 c -0.715,-0.426 -1.524,-0.668 -2.356,-0.699 z m -333.656,20.824 c -5.207,-0.195 -7.156,6.746 -2.605,9.289 l 23.914,13.809 c 2.379,1.406 5.445,0.601 6.828,-1.79 1.379,-2.394 0.539,-5.453 -1.867,-6.804 l -23.914,-13.809 c -0.715,-0.426 -1.524,-0.664 -2.356,-0.695 z m 332.848,5.391 c -5.211,-0.196 -7.16,6.746 -2.606,9.289 l 21,12.125 c 2.379,1.437 5.473,0.64 6.864,-1.766 1.39,-2.406 0.531,-5.484 -1.903,-6.824 l -21,-12.129 c -0.715,-0.426 -1.523,-0.664 -2.355,-0.695 z M 123.727,683.59 c -5.211,-0.199 -7.161,6.746 -2.606,9.289 l 22.352,12.902 c 2.375,1.41 5.445,0.606 6.824,-1.785 1.383,-2.394 0.543,-5.453 -1.863,-6.805 l -22.356,-12.906 c -0.711,-0.426 -1.519,-0.664 -2.351,-0.695 z m 326.164,1.531 c -5.211,-0.195 -7.161,6.746 -2.606,9.289 l 18.543,10.711 c 2.379,1.434 5.473,0.637 6.863,-1.769 1.387,-2.407 0.532,-5.481 -1.902,-6.825 L 452.242,685.82 c -0.711,-0.425 -1.519,-0.664 -2.351,-0.699 z m -3.668,24.567 c -5.211,-0.196 -7.157,6.746 -2.606,9.289 l 15.903,9.183 c 2.378,1.41 5.445,0.606 6.828,-1.789 1.382,-2.391 0.543,-5.449 -1.868,-6.805 l -15.906,-9.183 c -0.715,-0.426 -1.523,-0.664 -2.351,-0.695 z m -315.133,4.835 c -5.211,-0.199 -7.16,6.747 -2.61,9.289 l 21.223,12.25 c 2.375,1.411 5.445,0.606 6.824,-1.785 1.383,-2.394 0.543,-5.453 -1.867,-6.808 l -21.219,-12.25 c -0.714,-0.426 -1.523,-0.664 -2.351,-0.696 z m 309.316,18.489 c -5.215,-0.2 -7.164,6.75 -2.609,9.289 l 13.359,7.711 c 2.379,1.426 5.461,0.625 6.844,-1.774 1.387,-2.402 0.539,-5.468 -1.883,-6.816 l -13.359,-7.715 c -0.711,-0.426 -1.52,-0.664 -2.352,-0.695 z M 183.34,744.691 c -5.211,-0.199 -7.16,6.75 -2.606,9.289 l 41.282,23.832 c 2.375,1.411 5.445,0.606 6.824,-1.789 1.383,-2.39 0.543,-5.449 -1.867,-6.804 l -41.278,-23.832 c -0.715,-0.426 -1.523,-0.664 -2.355,-0.696 z m 192.785,4.575 c -5.211,-0.2 -7.156,6.746 -2.605,9.285 l 51.191,29.558 c 2.375,1.387 5.422,0.579 6.797,-1.804 1.375,-2.379 0.551,-5.426 -1.836,-6.789 l -51.195,-29.555 c -0.711,-0.426 -1.524,-0.664 -2.352,-0.695 z m -231.074,0 c -5.211,-0.196 -7.156,6.746 -2.606,9.289 l 67.918,39.215 c 2.375,1.382 5.422,0.574 6.797,-1.809 1.371,-2.379 0.551,-5.422 -1.836,-6.785 l -67.922,-39.215 c -0.714,-0.426 -1.523,-0.664 -2.351,-0.695 z m 285.816,4.922 c -5.211,-0.2 -7.16,6.746 -2.609,9.289 l 11.668,6.734 c 2.375,1.414 5.449,0.609 6.832,-1.785 1.383,-2.395 0.539,-5.457 -1.871,-6.809 l -11.668,-6.734 c -0.715,-0.426 -1.524,-0.664 -2.352,-0.695 z m -60.168,18.628 c -5.207,-0.199 -7.156,6.746 -2.605,9.289 l 33.652,19.426 c 2.379,1.438 5.473,0.641 6.859,-1.765 1.391,-2.407 0.536,-5.485 -1.898,-6.825 l -33.652,-19.429 c -0.715,-0.426 -1.524,-0.664 -2.356,-0.696 z" /></g></g><g
         transform="translate(516.61756,183.78737)"
         style="stroke:#000000;stroke-width:0.56692916;stroke-miterlimit:4;stroke-dasharray:none;stroke-opacity:1"
         id="g3767"><path
           style="fill:none;stroke:#000000;stroke-width:0.56692916;stroke-linecap:butt;stroke-linejoin:miter;stroke-miterlimit:4;stroke-dasharray:none;stroke-opacity:1"
           d="m -218.97978,195.82686 v 82.66125"
           id="path3748"
           inkscape:connector-curvature="0" /><path
           style="fill:none;stroke:#000000;stroke-width:0.56692916;stroke-linecap:butt;stroke-linejoin:miter;stroke-miterlimit:4;stroke-dasharray:none;stroke-opacity:1"
           d="m -260.3104,237.15749 h 82.66125"
           id="path3748-3"
           inkscape:connector-curvature="0" /></g></g></g></svg>